<?xml version="1.0" encoding="UTF-8" standalone="no"?>
<svg width="350px" height="170px"
     xmlns="http://www.w3.org/2000/svg" xmlns:xlink="http://www.w3.org/1999/xlink" version="1.2" baseProfile="tiny">
    <desc>Created by EvoPdf</desc>
    <defs>
        <linearGradient gradientUnits="userSpaceOnUse" x1="0" y1="0" x2="1" y2="0" id="gradient1">
            <stop offset="1e-07" stop-color="#7d141d" stop-opacity="1"/>
            <stop offset="1" stop-color="#ff1e27" stop-opacity="1"/>
        </linearGradient>
    </defs>
    <g fill="none" stroke="black" stroke-width="1" fill-rule="evenodd" stroke-linecap="square" stroke-linejoin="bevel">

        <g fill="#000000" fill-opacity="1" stroke="#000000" stroke-opacity="1" stroke-width="1" stroke-linecap="square"
           stroke-linejoin="miter" stroke-miterlimit="2" transform="matrix(1,0,0,1,0,0)"
        >
        </g>

        <g fill="#000000" fill-opacity="1" stroke="#000000" stroke-opacity="1" stroke-width="1" stroke-linecap="square"
           stroke-linejoin="miter" stroke-miterlimit="2" transform="matrix(1,0,0,1,0,0)"
        >
        </g>

        <g fill="#000000" fill-opacity="1" stroke="#000000" stroke-opacity="1" stroke-width="1" stroke-linecap="square"
           stroke-linejoin="miter" stroke-miterlimit="2" transform="matrix(1,0,0,1,0,0)"
        >
        </g>

        <g fill="#000000" fill-opacity="1" stroke="#000000" stroke-opacity="1" stroke-width="1" stroke-linecap="square"
           stroke-linejoin="miter" stroke-miterlimit="2" transform="matrix(1,0,0,1,0,0)"
        >
        </g>

        <g fill="#000000" fill-opacity="1" stroke="#000000" stroke-opacity="1" stroke-width="1" stroke-linecap="square"
           stroke-linejoin="miter" stroke-miterlimit="2" transform="matrix(0.946248,0,0,0.946248,8.0004,8)"
        >
        </g>

        <g fill="#000000" fill-opacity="1" stroke="#000000" stroke-opacity="1" stroke-width="1" stroke-linecap="square"
           stroke-linejoin="miter" stroke-miterlimit="2" transform="matrix(2.06992,0,0,2.06992,70.5119,53.3809)"
        >
        </g>

        <g fill="url(#gradient1)" stroke="none" transform="matrix(2.06992,0,0,2.06992,70.5119,53.3809)"
        >
            <path vector-effect="none" fill-rule="nonzero"
                  d="M93.476,48.476 L6.524,48.476 C5.683,48.476 5,49.159 5,50 C5,50.841 5.683,51.524 6.524,51.524 L93.476,51.524 C94.317,51.524 95,50.841 95,50 C95,49.159 94.317,48.476 93.476,48.476 "/>
        </g>

        <g fill="#000000" fill-opacity="1" stroke="#000000" stroke-opacity="1" stroke-width="1" stroke-linecap="square"
           stroke-linejoin="miter" stroke-miterlimit="2" transform="matrix(2.06992,0,0,2.06992,70.5119,53.3809)"
        >
        </g>

        <g fill="#000000" fill-opacity="1" stroke="#000000" stroke-opacity="1" stroke-width="1" stroke-linecap="square"
           stroke-linejoin="miter" stroke-miterlimit="2" transform="matrix(2.06992,0,0,2.06992,70.5119,53.3809)"
        >
        </g>

        <g fill="#000000" fill-opacity="1" stroke="#000000" stroke-opacity="1" stroke-width="1" stroke-linecap="square"
           stroke-linejoin="miter" stroke-miterlimit="2" transform="matrix(2.06992,0,0,2.06992,70.5119,53.3809)"
        >
        </g>

        <g fill="#000000" fill-opacity="1" stroke="#000000" stroke-opacity="1" stroke-width="1" stroke-linecap="square"
           stroke-linejoin="miter" stroke-miterlimit="2" transform="matrix(0.946248,0,0,0.946248,8.0004,8)"
        >
        </g>

        <g fill="#000000" fill-opacity="1" stroke="#000000" stroke-opacity="1" stroke-width="1" stroke-linecap="square"
           stroke-linejoin="miter" stroke-miterlimit="2" transform="matrix(4.67937,0,0,4.67937,2.38618,-47.9001)"
        >
        </g>

        <g fill="#000000" fill-opacity="1" stroke="none" transform="matrix(4.67937,0,0,4.67937,2.38618,-47.9001)"
        >
            <path vector-effect="none" fill-rule="nonzero"
                  d="M8.5768,15.955 L6.2918,14.7947 L4.6629,15.8533 L4.42989,18.2341 L4.69051,19.587 C5.42327,20.4562 8.68711,25.6086 8.68711,25.6086 L11.1783,30.0338 C11.1783,30.0338 11.5892,35.4862 11.5754,35.7498 C11.5616,36.0134 9.98558,39.3332 9.98558,39.3332 L5.84038,40.0453 L2.62478,38.569 L1.19978,35.9222 L1.87966,31.2034 L5.31676,29.7056 L7.53196,31.6579 L7.85161,34.6488 L6.27491,36.4102 L4.24821,35.8622 L4.40766,33.8501 L5.63716,33.1633 L5.58888,33.8823 L4.82236,35.016 L6.09636,34.8289 L6.62144,32.9809 L5.21334,32.1208 L3.98914,33.2951 L3.52922,35.2152 L3.7477,36.4845 L6.8421,37.2595 L8.3437,35.2995 L8.70241,34.0087 L8.44717,30.8867 L6.17907,26.2247 L3.33377,22.4895 L1.83597,17.6099 L2.79413,13.5535 L5.95603,11.9461 L9.59693,13.1219 L10.8065,14.7944 L10.8425,18.2 L9.40535,20.5478 L6.67655,20.4619 L5.25545,18.0673 L5.85949,16.3795 L6.91349,16.0438 L8.27869,17.1698 L8.06482,18.2 L6.84142,17.6558 L8.13682,19.336 L9.02982,18.3073 L8.5768,15.955 M21.5576,12.19 L25.0084,40.044 L22.5172,40.044 L21.6204,33.4916 L21.2708,30.5888 L21.0455,31.5991 C20.1716,31.4895 17.0957,31.4205 17.0957,31.4205 L16.8312,39.8321 L12.8,40.0437 L13.2032,38.3297 L15.7848,37.8828 L13.3427,37.7372 L15.3563,29.1812 L21.654,29.1812 L20.0888,17.2032 L17.9786,28.4742 L15.7128,28.6528 L19.3537,12.1908 L21.5575,12.1908 L21.5576,12.19 M30.7376,29.447 L31.0648,39.997 L28.3904,40 L28.2586,24.076 L32.0988,23.886 L33.917,21.2507 L34.291,17.6573 C34.291,17.6573 33.3812,15.4535 33.221,15.4053 C33.0608,15.3577 30.5198,15.3861 30.3596,15.3378 C30.1994,15.2895 29.9319,17.829 29.9319,17.829 L29.9319,20.1761 C29.9319,20.1761 32.0444,20.3915 32.0444,20.2482 C32.0444,20.1049 32.2046,18.3319 32.2046,18.3319 C32.2046,18.3319 31.3492,18.7151 31.2955,18.5718 C31.2419,18.4285 31.2419,16.5597 31.2419,16.5597 L32.9007,17.1783 L33.1138,19.3337 L32.4722,21.6815 L27.789,22.8704 L27.4402,12.2064 L31.1356,12.2064 L33.7019,13.0688 L35.7347,15.3683 L36.2698,19.046 C36.2698,19.046 35.9486,22.2669 35.7347,22.5544 C35.5209,22.8419 34.4508,25.2372 34.1304,25.333 C33.81,25.4288 31.9198,26.5479 31.9198,26.5479 L38.009,39.9459 L34.6087,39.9627 L30.7376,29.447 M44.3396,37.5129 L45.9463,37.5206 L45.8344,40.044 L40.1332,40.034 L40.0052,37.7766 L41.4217,37.6816 L41.5696,33.4012 L41.2822,17.5892 L40.9725,23.1596 C40.8874,20.2537 40.8214,16.9776 40.7785,14.8752 L38.84,14.9564 L38.84,12.19 L46.122,12.1386 L46.0101,14.7486 L44.3046,14.7272 L44.3396,37.5129 M56.5176,12.19 L59.9684,40.044 L57.4772,40.044 L56.5804,33.4916 L56.2308,30.5888 L56.0055,31.5991 C55.1316,31.4895 52.0557,31.4205 52.0557,31.4205 L51.7912,39.8321 L47.76,40.0437 L48.1632,38.3297 L50.7448,37.8828 L48.3027,37.7372 L50.3163,29.1812 L56.614,29.1812 L55.0488,17.2032 L52.9386,28.4742 L50.6728,28.6528 L54.3137,12.1908 L56.5175,12.1908 L56.5176,12.19 M68.9768,15.955 L66.6918,14.7947 L65.0629,15.8533 L64.8299,18.2341 L65.0905,19.587 C65.8233,20.4562 69.0871,25.6086 69.0871,25.6086 L71.5783,30.0338 C71.5783,30.0338 71.9892,35.4862 71.9754,35.7498 C71.9616,36.0134 70.3856,39.3332 70.3856,39.3332 L66.2404,40.0453 L63.0248,38.569 L61.5998,35.9222 L62.2797,31.2034 L65.7168,29.7056 L67.932,31.6579 L68.2516,34.6488 L66.6749,36.4102 L64.6482,35.8622 L64.8077,33.8501 L66.0372,33.1633 L65.9889,33.8823 L65.2224,35.016 L66.4964,34.8289 L67.0214,32.9809 L65.6133,32.1208 L64.3891,33.2951 L63.9292,35.2152 L64.1477,36.4845 L67.2421,37.2595 L68.7437,35.2995 L69.1024,34.0087 L68.8472,30.8867 L66.5791,26.2247 L63.7338,22.4895 L62.236,17.6099 L63.1941,13.5535 L66.356,11.9461 L69.9969,13.1219 L71.2065,14.7944 L71.2426,18.2 L69.8054,20.5478 L67.0766,20.4619 L65.6555,18.0673 L66.2595,16.3795 L67.3135,16.0438 L68.6787,17.1698 L68.4648,18.2 L67.2414,17.6558 L68.5368,19.336 L69.4298,18.3073 L68.9768,15.955"/>
        </g>

        <g fill="#000000" fill-opacity="1" stroke="#000000" stroke-opacity="1" stroke-width="1" stroke-linecap="square"
           stroke-linejoin="miter" stroke-miterlimit="2" transform="matrix(4.67937,0,0,4.67937,2.38618,-47.9001)"
        >
        </g>

        <g fill="#000000" fill-opacity="1" stroke="#000000" stroke-opacity="1" stroke-width="1" stroke-linecap="square"
           stroke-linejoin="miter" stroke-miterlimit="2" transform="matrix(0.946248,0,0,0.946248,8.0004,8)"
        >
        </g>

        <g fill="#000000" fill-opacity="1" stroke="#000000" stroke-opacity="1" stroke-width="1" stroke-linecap="square"
           stroke-linejoin="miter" stroke-miterlimit="2" transform="matrix(0.946248,0,0,0.946248,8.0004,8)"
        >
        </g>

        <g fill="#000000" fill-opacity="1" stroke="#000000" stroke-opacity="1" stroke-width="1" stroke-linecap="square"
           stroke-linejoin="miter" stroke-miterlimit="2" transform="matrix(1,0,0,1,0,0)"
        >
        </g>

        <g fill="#000000" fill-opacity="1" stroke="#000000" stroke-opacity="1" stroke-width="1" stroke-linecap="square"
           stroke-linejoin="miter" stroke-miterlimit="2" transform="matrix(1,0,0,1,0,0)"
        >
        </g>

        <g fill="#000000" fill-opacity="1" stroke="#000000" stroke-opacity="1" stroke-width="1" stroke-linecap="square"
           stroke-linejoin="miter" stroke-miterlimit="2" transform="matrix(1,0,0,1,0,0)"
        >
        </g>

        <g fill="#000000" fill-opacity="1" stroke="#000000" stroke-opacity="1" stroke-width="1" stroke-linecap="square"
           stroke-linejoin="miter" stroke-miterlimit="2" transform="matrix(1,0,0,1,0,0)"
        >
        </g>

        <g fill="#000000" fill-opacity="1" stroke="#000000" stroke-opacity="1" stroke-width="1" stroke-linecap="square"
           stroke-linejoin="miter" stroke-miterlimit="2" transform="matrix(0.946248,0,0,0.946248,8.0004,8)"
        >
        </g>

        <g fill="#000000" fill-opacity="1" stroke="#000000" stroke-opacity="1" stroke-width="1" stroke-linecap="square"
           stroke-linejoin="miter" stroke-miterlimit="2" transform="matrix(2.06992,0,0,2.06992,70.5119,53.3809)"
        >
        </g>

        <g fill="#000000" fill-opacity="1" stroke="#000000" stroke-opacity="1" stroke-width="1" stroke-linecap="square"
           stroke-linejoin="miter" stroke-miterlimit="2" transform="matrix(2.06992,0,0,2.06992,70.5119,53.3809)"
        >
        </g>

        <g fill="#000000" fill-opacity="1" stroke="#000000" stroke-opacity="1" stroke-width="1" stroke-linecap="square"
           stroke-linejoin="miter" stroke-miterlimit="2" transform="matrix(0.946248,0,0,0.946248,8.0004,8)"
        >
        </g>

        <g fill="#000000" fill-opacity="1" stroke="#000000" stroke-opacity="1" stroke-width="1" stroke-linecap="square"
           stroke-linejoin="miter" stroke-miterlimit="2" transform="matrix(0.946248,0,0,0.946248,8.0004,8)"
        >
        </g>

        <g fill="#000000" fill-opacity="1" stroke="#000000" stroke-opacity="1" stroke-width="1" stroke-linecap="square"
           stroke-linejoin="miter" stroke-miterlimit="2" transform="matrix(0.946248,0,0,0.946248,8.0004,8)"
        >
        </g>

        <g fill="#000000" fill-opacity="1" stroke="#000000" stroke-opacity="1" stroke-width="1" stroke-linecap="square"
           stroke-linejoin="miter" stroke-miterlimit="2" transform="matrix(1,0,0,1,0,0)"
        >
        </g>

        <g fill="#000000" fill-opacity="1" stroke="#000000" stroke-opacity="1" stroke-width="1" stroke-linecap="square"
           stroke-linejoin="miter" stroke-miterlimit="2" transform="matrix(1,0,0,1,0,0)"
        >
        </g>

        <g fill="#000000" fill-opacity="1" stroke="#000000" stroke-opacity="1" stroke-width="1" stroke-linecap="square"
           stroke-linejoin="miter" stroke-miterlimit="2" transform="matrix(1,0,0,1,0,0)"
        >
        </g>

        <g fill="#000000" fill-opacity="1" stroke="#000000" stroke-opacity="1" stroke-width="1" stroke-linecap="square"
           stroke-linejoin="miter" stroke-miterlimit="2" transform="matrix(1,0,0,1,0,0)"
        >
        </g>

        <g fill="#000000" fill-opacity="1" stroke="#000000" stroke-opacity="1" stroke-width="1" stroke-linecap="square"
           stroke-linejoin="miter" stroke-miterlimit="2" transform="matrix(1,0,0,1,0,0)"
        >
        </g>

        <g fill="#000000" fill-opacity="1" stroke="#000000" stroke-opacity="1" stroke-width="1" stroke-linecap="square"
           stroke-linejoin="miter" stroke-miterlimit="2" transform="matrix(1,0,0,1,0,0)"
        >
        </g>
    </g>
</svg>
